Patient4_TMGait_0pt4_01_right_38_EMG.mot
version=1
nRows=16
nColumns=33
inDegrees=no
endheader
time	1LAddLong	2LGlutMax	3LGlutMed	4LIliopsoas	5LSemiMemb	6LBicFemLong	7LRecFem	8LVastMed	9LVastLat	10LGasMed	11LTibAnt	12lTibPost	13LPeroneusLong	14LSol	15LExtDigLong	16LFlexDigLong	17RAddLong	18RGlutMax	19RGlutMed	20RIliopsoas	21RSemiMemb	22RBicFemLong	23RRecFem	24RVastMed	25RVastLat	26RGasMed	27RTibAnt	28RTibPost	29RPeroneusLong	30RSol	31RExtDigLong	32RFlexDigLong
50.045	0.088501	-0.16281	-0.049286	-0.014648	-0.005341	-0.040588	-0.28214	-0.003052	0.029602	0.000305	-0.009613	-0.11276	0.4042	0.077515	-0.080719	-0.081024	0.044403	-0.14191	0.63889	0.10147	0.20081	-0.34332	0.066071	0.35507	0.002899	0.007019	-0.1503	-0.023499	0.82153	-0.052948	-0.000458	-0.010223
50.046	-0.068665	-0.1944	-0.040741	-0.005951	-0.005493	-0.031281	-0.28503	0.008087	0.020447	0.005493	0.007782	-0.01358	-0.082855	0.36545	-0.11459	-0.035248	0.080872	-0.17471	-0.21439	0.12344	0.074463	-0.29678	0.3862	0.34714	0.011597	-0.006104	0.21027	-0.02655	0.49027	0.26032	-0.001678	-0.019684
50.047	-0.013275	-0.20264	-0.02243	0.016174	-0.002747	-0.042419	-0.19608	-0.006409	0.018616	0.11932	0.009918	-0.12177	-0.1619	-0.19379	-0.12405	0.025635	0.046082	-0.25116	-0.2504	0.020447	-0.00824	-0.19928	0.62118	0.23651	0.005188	-0.005951	0.39124	-0.03067	1.0323	0.042114	-0.000305	-0.010681
50.048	-0.016785	-0.20874	-0.006714	0.037994	-0.003204	-0.041504	-0.001068	-0.003204	0.020905	0.062103	0.004883	-0.16678	-0.10452	-0.49316	-0.085297	-0.011902	-0.069427	-0.19913	0.53116	-0.048218	0.37369	-0.009155	0.6041	0.13138	-0.001678	0.006714	0.22583	-0.02533	0.72464	-0.075989	-0.003357	-0.009613
50.049	-0.009003	-0.20477	-0.007324	0.005035	-0.003052	-0.049591	0.20859	-0.00061	0.009918	-0.054016	-0.001068	-0.041199	0.13748	-0.46188	-0.022125	-0.033569	-0.085602	-0.13229	0.36209	-0.069885	0.30441	-0.045319	0.66956	0.001526	-0.044708	-0.006561	-0.039978	-0.02533	0.89081	-0.007172	-0.001373	0.007019
50.05	-0.015564	-0.20615	-0.002289	0.000305	-0.001068	-0.046539	0.20645	0.000763	-0.001984	0.010529	-0.006256	0.011292	0.12146	-0.10346	0.061035	-0.072937	-0.080719	-0.2388	-1.0039	0.004425	-0.16052	0.008087	0.60043	-0.14908	-0.042419	-0.006409	-0.058136	-0.02243	-0.052185	-0.028992	-0.005188	-0.01236
50.051	-0.006256	-0.20371	-0.005341	0.006409	0.001678	-0.040436	0.18509	0.009918	0.004425	-0.004272	-0.004578	0.009155	0.084839	-0.022583	0.063477	-0.059357	-0.067596	-0.31998	-0.90881	-0.079498	-0.27161	-0.04364	0.70938	-0.15747	0.037079	-0.000916	0.042877	-0.026703	-0.14664	-0.083923	0.004883	-0.007629
50.052	-0.00946	-0.19516	0.049286	0.012665	0.003357	-0.022278	0.092926	0.011597	-0.008392	-0.026093	0.002747	0.002747	0.11124	-0.17181	0.041504	-0.0354	-0.05249	-0.36316	0.49316	-0.053406	-0.065308	-0.21469	0.80063	-0.20737	0.017395	-0.000153	0.097809	-0.029449	-0.041656	-0.039978	-0.00061	-0.005341
50.053	-0.012054	-0.18753	0.07843	0.016022	-0.006561	-0.051422	-0.077515	0.010834	-0.020294	-0.007019	-0.008087	0.002747	-0.057983	-0.035706	0.050964	-0.050507	-0.053558	-0.47836	0.041504	0.07431	-0.037079	-0.19257	0.77423	-0.14908	-0.030212	-0.01358	0.058136	-0.016479	-0.018311	0.18524	-0.00061	-0.009155
50.054	-0.010071	-0.18967	0.08316	0.016174	0.000458	-0.01709	-0.20416	0.00885	-0.039673	-0.046692	0.004883	0.00946	-0.11337	0.14252	0.04425	-0.039673	-0.047302	-0.51636	-0.87021	0.13138	0.014954	-0.020142	0.67993	-0.2211	0.009155	-0.013428	0.0737	-0.008698	-0.002441	0.27649	-0.000763	-0.002594
50.055	-0.009003	-0.22995	0.033112	-0.002441	-0.002136	-0.018463	-0.25452	0.009155	-0.05188	-0.10727	0.003815	0.012054	-0.092773	0.18356	0.033569	-0.04303	-0.006256	-0.57938	-0.53772	0.10681	-0.12817	0.14816	0.61325	-0.11032	0.40558	-0.005951	0.046539	-0.007172	-0.19424	0.21942	-0.002136	0.000763
50.056	-0.004578	-0.21225	-0.012665	-0.010834	-0.005035	-0.007477	-0.28305	0.008545	-0.03479	-0.037994	0.006866	0.013733	-0.070038	0.20172	0.049591	-0.0383	-0.020447	-0.58014	-0.4773	-0.028381	-0.3862	0.18356	0.56992	0.15533	0.63614	-0.019989	0.058136	-0.005188	-0.73624	-0.087128	0	-0.00946
50.057	-0.005951	-0.24185	0.000916	0.002747	0.001831	-0.027008	-0.19562	0.010986	-0.033875	0.057831	-0.002899	0.018158	-0.011749	0.24048	0.045319	-0.02121	-0.058899	-0.54306	-0.19836	-0.16174	-0.22003	0.39139	0.50323	0.15869	1.1304	-0.022583	0.026703	-0.045929	-0.93735	-0.17395	-0.002289	-0.001678
50.058	-0.012512	-0.24643	-0.034027	0.011139	-0.002441	-0.026703	0.012054	0.01236	-0.035553	0.14191	-0.011749	0.019379	-0.014343	0.1535	0.028076	-0.022125	-0.071259	-0.56793	-0.1088	-0.033722	0.15305	0.62439	0.51468	0.2832	0.99442	-0.027924	-0.010223	-0.086365	-0.19486	0.19318	0.000305	0.001831
50.059	-0.010529	-0.25238	-0.009003	0.00824	-0.00885	-0.022736	0.14755	0.00473	-0.028076	0.18692	0.001831	0.023193	-0.011292	0.11627	0.023956	-0.01297	-0.059814	-0.63156	-0.10635	0.024414	0.1474	0.40039	0.48966	0.35324	0.67902	-0.024109	-0.060883	0.037079	0.39261	0.33752	-0.005798	-0.002594
50.06	-0.015259	-0.25436	0.03418	-0.007019	-0.002136	-0.017242	0.28519	-0.002594	-0.013123	0.063477	0.010376	0.02533	-0.024261	0.11673	0.018768	-0.004578	-0.028534	-0.65704	-0.34866	0.005035	0.18066	0.075073	0.33417	0.42648	0.37613	-0.001068	0.033264	0.008698	2.2929	0.11643	-0.004883	-0.004272
